<svg xmlns="http://www.w3.org/2000/svg" width="17.292" height="42.29" viewBox="0 0 17.292 42.29">
  <defs>
    <style>
      .cls-1 {
        fill: #47b574;
      }
    </style>
  </defs>
  <g id="advice" transform="translate(-38.656 -2.018)">
    <path id="Path_515" data-name="Path 515" class="cls-1" d="M54.862,67.255c-1.208.964-3.422,2.189-5.035,2.076-1.6-.113-1.29-1.634-.974-2.83l2.674-10.11a4.534,4.534,0,1,0-8.762-2.341c-.39,1.446-3.514,14.339-3.534,14.42-.437,1.832-.959,4.173-.154,5.979,1.222,2.739,4.933,1.943,7.188,1.291a17.974,17.974,0,0,0,4.408-1.925,40.438,40.438,0,0,0,4.488-3.552Z" transform="translate(0 -32.063)"/>
    <path id="Path_516" data-name="Path 516" class="cls-1" d="M61.347,2.029A6.783,6.783,0,0,0,54.512,8.3a5.168,5.168,0,0,0,.763,2.914c2.087,3.376,6.881,2.641,9.472.311C68.167,8.451,65.876,2.313,61.347,2.029Z" transform="translate(-10.444)"/>
  </g>
</svg>
